<svg xmlns="http://www.w3.org/2000/svg" viewBox="0 0 512.001 512.001" style="enable-background:new 0 0 512.001 512.001" xml:space="preserve"><path style="fill:#429dea" d="M404.5 109.5 256 469.5l248.5-300z"/><path style="fill:#8bfff4" d="m7.5 169.5 248.5 300v-350z"/><path style="fill:#2dceea" d="M256 119.5v350l208.5-300z"/><path style="fill:#17ffe9" d="M173.167 169.5 256 469.5l82.833-300-82.833-60zM504.5 169.5l-82.833-127v107l42.833 20zM256 42.5v63.767l82.833 63.233 82.834-63.5V42.5z"/><path style="fill:#8bfff4" d="M90.333 42.5V106l82.834 63.5L256 106.267V42.5z"/><path style="fill:#fff" d="M338.833 169.5 256 42.5l-82.833 127zM90.333 42.5 7.5 169.5h165.667z"/><path style="fill:#8bfff4" d="m421.667 42.5-82.834 127H464.5z"/><path d="m510.782 165.403-82.833-127a8.042 8.042 0 0 0-.55-.738c-.024-.029-.051-.055-.076-.083a7.273 7.273 0 0 0-.51-.53c-.066-.062-.134-.12-.201-.18a7.256 7.256 0 0 0-.451-.365 7.396 7.396 0 0 0-.253-.184c-.049-.034-.093-.071-.143-.104-.117-.076-.238-.139-.357-.208-.076-.044-.149-.091-.226-.132a7.402 7.402 0 0 0-1.603-.627c-.058-.015-.117-.027-.175-.041a7.287 7.287 0 0 0-.681-.129c-.072-.01-.144-.02-.216-.028a7.43 7.43 0 0 0-.73-.046c-.037 0-.072-.007-.109-.007H90.335c-.043 0-.084.007-.127.008a7.515 7.515 0 0 0-.936.074 7.543 7.543 0 0 0-.661.126c-.064.015-.128.028-.191.044a7.451 7.451 0 0 0-1.597.625c-.079.042-.153.09-.23.134-.118.068-.239.131-.354.207-.05.032-.094.07-.143.104a8.066 8.066 0 0 0-.704.549c-.068.059-.136.118-.201.18-.18.169-.35.346-.51.53-.025.028-.052.054-.076.083a7.364 7.364 0 0 0-.534.717c-.019.021-82.853 127.021-82.853 127.021a7.498 7.498 0 0 0 .506 8.881l248.5 300c.074.089.157.167.234.253.065.071.128.143.195.211.248.253.508.492.787.705.029.022.061.041.091.062a7.425 7.425 0 0 0 1.061.655c.315.161.638.308.973.423a8.052 8.052 0 0 0 1.334.315c.363.054.729.091 1.101.091s.738-.037 1.101-.091a7.512 7.512 0 0 0 1.29-.302 7.299 7.299 0 0 0 1.268-.571c.28-.157.552-.328.81-.52.029-.022.061-.04.091-.062a7.48 7.48 0 0 0 .787-.705c.067-.069.131-.14.196-.211.077-.085.16-.164.234-.252l248.5-300a7.502 7.502 0 0 0 .505-8.882zM256 56.228 324.988 162H187.012L256 56.228zm-82.834 99.543L104.179 50h137.975l-68.988 105.771zM269.846 50h137.975l-68.987 105.771L269.846 50zM90.334 56.228 159.321 162H44.7a7.5 7.5 0 0 0 0 15h122.757l20.512 74.287a7.503 7.503 0 0 0 7.225 5.506 7.5 7.5 0 0 0 7.233-9.498L183.018 177h145.964L256 441.321l-45.588-165.108a7.5 7.5 0 0 0-14.459 3.993l43.506 157.569L16.8 168.97 90.334 56.228zM272.54 437.774 344.543 177H467.3a7.5 7.5 0 0 0 0-15H352.679l68.987-105.771L495.2 168.97 272.54 437.774z"/></svg>