<svg xmlns="http://www.w3.org/2000/svg" viewBox="0 0 64 64"><path style="fill:#232328" d="M32.711 64 64 30H44.71L32.711 64zM64 28l-8.762-11.969L46.031 28H64zM53.508 15H32.437l11.494 12.45L53.508 15zM32 30H21.41L32 59.99 42.59 30H32zM0 30l31.289 34L19.29 30H0zM32 28h9.72L32 17.47 22.28 28H32zM8.762 16.031 0 28h17.969L8.762 16.031zM31.563 15H10.492l9.577 12.45L31.563 15zM32 13a1 1 0 0 1-1-1V1a1 1 0 0 1 2 0v11a1 1 0 0 1-1 1zM40 13a1 1 0 0 1-.759-1.65l6-7a1 1 0 0 1 1.518 1.3l-6 7A.993.993 0 0 1 40 13zM24 13a.993.993 0 0 1-.759-.35l-6-7a1 1 0 0 1 1.518-1.3l6 7A1 1 0 0 1 24 13z"/></svg>